#!OML:ASF X:\für Bonn\!DataBase\2005_08_11_Bastian_Final\c3d\Bastian.ASF
:FULLY-SPECIFIED
:DEGREES
46
root 7.50573 17.0366 -4.06087 194.668 85.2468 -150.423
lowerback 27.9336 -1.62352 -1.54319
upperback 16.2527 -0.426074 2.6927
thorax 2.93296 0.325184 3.97828
lowerneck -1.72125 -10.0972 -9.55555
upperneck 1.14526 -13.7612 17.6683
head 2.5648 -6.6957 6.32788
rclavicle -8.34896e-015 3.57812e-015
rhumerus -9.057 15.1914 -75.15
rradius 34.0724
rwrist -4.12264
rhand -30.8411 -1.91761
rfingers 7.12502
rthumb -4.12969 -31.8573
lclavicle -8.34896e-015 3.57812e-015
lhumerus -1.84584 -20.7322 86.612
lradius 37.9068
lwrist 16.194
lhand -14.2863 -11.2916
lfingers 7.12502
lthumb 11.8531 18.3529
rfemur -14.8135 2.15625 21.8413
rtibia 36.9571
rfoot -8.10527 -3.77769
rtoes -11.6064
lfemur -4.06517 4.77044 -18.1651
ltibia 45.7518
lfoot -12.1883 -9.71551
ltoes -12.1015
47
root 7.51923 17.0135 -4.05154 195.98 84.8856 -148.903
lowerback 28.7929 -1.80883 -1.17268
upperback 16.5199 -0.476532 2.89399
thorax 2.86336 0.35051 4.01705
lowerneck -1.90921 -10.1909 -9.50187
upperneck 0.942478 -13.8597 17.7319
head 2.55249 -6.74282 6.32422
rclavicle -1.09332e-014 4.77083e-015
rhumerus -8.17775 15.413 -74.6309
rradius 34.0561
rwrist -4.24023
rhand -30.9674 -1.90505
rfingers 7.12502
rthumb -4.25169 -31.8424
lclavicle -1.09332e-014 4.77083e-015
lhumerus -1.69493 -20.6883 86.7011
lradius 37.5757
lwrist 16.1196
lhand -14.4136 -11.1679
lfingers 7.12502
lthumb 11.7303 18.4837
rfemur -14.6857 1.87485 22.1236
rtibia 37.1747
rfoot -8.01546 -3.74997
rtoes -10.8466
lfemur -4.75461 4.6079 -17.8433
ltibia 47.3398
lfoot -11.7383 -9.68186
ltoes -13.3407
48
root 7.53094 16.9883 -4.04176 197.503 84.4948 -147.184
lowerback 29.6622 -2.01959 -0.743121
upperback 16.7728 -0.535048 3.09073
thorax 2.77829 0.37742 4.02117
lowerneck -2.10699 -10.2898 -9.41478
upperneck 0.792392 -13.9715 17.7903
head 2.55617 -6.79402 6.31102
rclavicle 0 7.15625e-015
rhumerus -7.31872 15.6036 -74.1293
rradius 34.0578
rwrist -4.38701
rhand -31.0206 -1.91299
rfingers 7.12502
rthumb -4.303 -31.8493
lclavicle 0 7.15625e-015
lhumerus -1.54376 -20.6343 86.7653
lradius 37.2162
lwrist 16.0841
lhand -14.4822 -11.0444
lfingers 7.12502
lthumb 11.6642 18.611
rfemur -14.5911 1.58204 22.4529
rtibia 37.4183
rfoot -7.91195 -3.75218
rtoes -10.1785
lfemur -5.50293 4.47832 -17.472
ltibia 48.9188
lfoot -11.2052 -9.66087
ltoes -14.7343
49
root 7.54096 16.9629 -4.0323 199.254 84.0772 -145.273
lowerback 30.4724 -2.24943 -0.264764
upperback 17.0703 -0.588622 3.29374
thorax 2.77743 0.412376 4.00582
lowerneck -2.3937 -10.3961 -9.22362
upperneck 0.598492 -14.0844 17.8008
head 2.55073 -6.84345 6.26294
rclavicle 1.51076e-014 -3.81667e-014
rhumerus -6.35195 15.7553 -73.6066
rradius 34.0625
rwrist -4.56765
rhand -31.1072 -1.92951
rfingers 7.12502
rthumb -4.38661 -31.8641
lclavicle 1.51076e-014 -3.81667e-014
lhumerus -1.29616 -20.5881 86.7674
lradius 36.868
lwrist 16.1186
lhand -14.498 -10.892
lfingers 7.12502
lthumb 11.6489 18.7642
rfemur -14.5597 1.25192 22.827
rtibia 37.6612
rfoot -7.81758 -3.76825
rtoes -9.72259
lfemur -6.30645 4.35035 -17.0563
ltibia 50.4309
lfoot -10.7199 -9.62504
ltoes -16.1304
50
root 7.55005 16.9337 -4.02229 200.368 83.7241 -144.005
lowerback 31.6355 -2.45511 0.133442
upperback 17.2835 -0.637101 3.61679
thorax 2.48974 0.45099 3.91657
lowerneck -2.64973 -10.4938 -9.00317
upperneck 0.395587 -14.1843 17.7159
head 2.52535 -6.89029 6.18454
rclavicle -3.97569e-016 -1.66979e-014
rhumerus -5.36508 15.9174 -73.0192
rradius 34.0382
rwrist -4.69322
rhand -31.1378 -1.92875
rfingers 7.12502
rthumb -4.41623 -31.8627
lclavicle -3.97569e-016 -1.66979e-014
lhumerus -1.08718 -20.5654 86.7847
lradius 36.5225
lwrist 16.21
lhand -14.5796 -10.7674
lfingers 7.12502
lthumb 11.5702 18.8932
rfemur -14.5444 0.967042 23.1367
rtibia 37.9229
rfoot -7.71781 -3.82266
rtoes -9.44127
lfemur -7.11677 4.34558 -16.7106
ltibia 51.8515
lfoot -10.4013 -9.64244
ltoes -17.9228
51
root 7.55573 16.911 -4.01345 201.417 83.3673 -142.815
lowerback 32.5005 -2.67463 0.562523
upperback 17.541 -0.667389 3.79684
thorax 2.44911 0.496226 3.89443
lowerneck -2.89705 -10.5921 -8.7179
upperneck 0.187959 -14.287 17.6311
head 2.49234 -6.93903 6.09695
rclavicle -1.15295e-014 -5.36719e-014
rhumerus -4.39514 16.0994 -72.4637
rradius 34.0315
rwrist -4.91138
rhand -31.2825 -1.89167
rfingers 7.12502
rthumb -4.55593 -31.8227
lclavicle -1.15295e-014 -5.36719e-014
lhumerus -0.881011 -20.5683 86.7514
lradius 36.1799
lwrist 16.3166
lhand -14.5578 -10.566
lfingers 7.12502
lthumb 11.5912 19.0935
rfemur -14.5517 0.648407 23.4353
rtibia 38.1873
rfoot -7.61616 -3.86691
rtoes -9.14893
lfemur -7.91686 4.41976 -16.356
ltibia 53.1336
lfoot -10.2413 -9.68335
ltoes -19.6302
52
root 7.55868 16.8876 -4.00568 202.214 83.0655 -141.921
lowerback 33.3414 -2.87362 0.960592
upperback 17.7983 -0.672391 3.95189
thorax 2.42462 0.553287 3.8578
lowerneck -3.08525 -10.6955 -8.34163
upperneck -0.17586 -14.383 17.5256
head 2.39407 -6.99388 5.9973
rclavicle 1.31198e-014 1.23246e-014
rhumerus -3.38084 16.1552 -71.9212
rradius 33.9824
rwrist -5.00013
rhand -31.4476 -1.84869
rfingers 7.12502
rthumb -4.7153 -31.7762
lclavicle 1.31198e-014 1.23246e-014
lhumerus -0.70233 -20.6536 86.6642
lradius 35.9036
lwrist 16.4262
lhand -14.5626 -10.4153
lfingers 7.12502
lthumb 11.5866 19.2444
rfemur -14.6552 0.262805 23.6812
rtibia 38.5077
rfoot -7.53875 -3.81703
rtoes -9.22821
lfemur -8.73767 4.59695 -16.0544
ltibia 54.2732
lfoot -10.3142 -9.78386
ltoes -21.0332
